<svg xmlns="http://www.w3.org/2000/svg" fill="#9fd3ff" viewBox="0 0 58.1655 55.9297">
  <g>
    <rect y="49.2183" width="58.1655" height="6.7114" rx="1.2574" ry="1.2574"></rect>
    <path d="M56.9037,0H1.264C.566,0,0,.5659,0,1.264V5.4474c.0037,.6955,.5685,1.2574,1.264,1.2574H56.9059c.6969-.0012,1.2609-.5671,1.2596-1.264V1.2618c0-.6969-.5649-1.2618-1.2618-1.2618Z"></path>
    <path d="M15.4169,12.581h-4.4868c-.6142,.0036-1.1102,.5026-1.1102,1.1168v18.7737l-3.5415-3.5349c-.4941-.488-1.2888-.488-1.7828,0l-2.7172,2.6424c-.4959,.4913-.4997,1.2916-.0084,1.7876l.0084,.0084,9.0264,9.0264c1.3095,1.3106,3.4335,1.3115,4.7441,.002,.0007-.0007,.0013-.0013,.002-.002l9.0308-9.0308c.4935-.4868,.4989-1.2816,.0121-1.7751l-.0121-.0121-2.715-2.649c-.4976-.492-1.2985-.492-1.796,0l-.0198,.011-3.5173,3.5173V13.6978c0-.6168-.5-1.1168-1.1168-1.1168Z"></path>
    <path d="M47.2552,12.5546h-4.4978c-.6168,0-1.1168,.5-1.1168,1.1168v18.7737l-3.5349-3.5437c-.494-.4881-1.2888-.4881-1.7828,0l-2.7171,2.6424c-.496,.4913-.4998,1.2916-.0084,1.7876l.0084,.0084,9.0263,9.0263c1.3095,1.3107,3.4336,1.3115,4.7442,.002l.002-.002,9.0307-9.0307c.4935-.4869,.499-1.2816,.0121-1.7751-.004-.004-.0081-.0081-.0121-.0121l-2.715-2.649c-.4976-.492-1.2984-.492-1.796,0l-.0088,.011-3.5173,3.5173V13.6714c0-.6168-.4999-1.1168-1.1167-1.1168Z"></path>
  </g>
</svg>
